<?xml version="1.0" encoding="utf-8"?>
<!DOCTYPE svg PUBLIC "-//W3C//DTD SVG 1.1//EN" "http://www.w3.org/Graphics/SVG/1.1/DTD/svg11.dtd">
<svg version="1.1" xmlns="http://www.w3.org/2000/svg" xmlns:xlink="http://www.w3.org/1999/xlink" x="0px" y="0px" width="100%" height="100%" viewBox="0 0 1000 1000" xml:space="preserve" preserveAspectRatio="xMidYMid meet">
	<circle cx="50%" cy="50%" r="45%" fill="#505050"/>
	<!-- <circle cx="50%" cy="50%" r="40%" fill="#282828"/> -->
	<g id="initials" fill="#F2F2F2" >
		<path id="f" d="M503.9,364.3c-7.4,19-14,39.9-19.8,61.7h-32.7l-3.4,20h31c-9,36.7-16.3,75.1-23.1,110.9
			c-8.6,44.9-16.6,87.3-26.3,117.6c-5.2,16.2-14.8,42.7-24.3,42.8l-3.2,21.7c39.7-0.3,53.8-75.6,73.4-178.4
			c7.1-37.1,14.8-77,24.3-114.6h42.4l3.2-20h-40.3c21.6-78.3,51.9-141.9,100.7-141.9L609,264C564.8,264,530.4,296.8,503.9,364.3z"
			/>
		<path id="k" d="M410,445l3.4-19c-34.7,0-83.9,25.1-123.7,74.7c-7.7,9.6-14.8,19.4-21.2,28.7
			c12.1-64,23.7-113.1,35.6-152.3c25.5-84,44.6-93,50.8-93L358,264c-30.3,0-50.9,34.1-73.1,107.3C270,420.5,254.5,488.3,239,577
			h20.8h1.2c0.2-0.3,16.8-29.6,44.5-64c1.6-2,3.2-3.9,4.8-5.8c11.6,23.7,38.8,69.8,79.3,69.8l3.4-20c-31,0-55.4-42.7-67.7-66
			C355.4,461.2,387.2,445,410,445z"/>
	</g>
</svg>
